<?xml version="1.0" encoding="utf-8"?>
<!-- Generator: Adobe Illustrator 26.0.3, SVG Export Plug-In . SVG Version: 6.00 Build 0)  -->
<svg version="1.1" id="Layer_1" xmlns="http://www.w3.org/2000/svg" xmlns:xlink="http://www.w3.org/1999/xlink" x="0px" y="0px"
	 viewBox="0 0 1024 1024" style="enable-background:new 0 0 1024 1024;" xml:space="preserve">
<style type="text/css">
	.st0{fill:#FFFFFF;}
</style>
<path class="st0" d="M251,795.9c-12.8-8.5-23.8-19.4-36.7-34.8c-6.7-8.2-13.3-16.4-19.9-24.7c-19.8-24.5-32.2-35.8-45.1-40.5
	c-22.2-8-33.7-32.4-25.7-54.6c8-22.2,32.4-33.7,54.6-25.7l0,0c32.1,11.5,53.8,31.4,83.1,67.8c-4-5,14.5,18.2,18.5,23
	c8.1,9.7,14.1,15.6,18.8,18.7c8.7,5.8,25,8.4,49.1,6c1-16.3,4-32.1,8.6-46.7c-126.6-31-198.3-112.6-198.3-272.9
	c0-52.9,15.8-100.5,45.1-140.5c-9.3-38.1-7.9-84.3,12.9-136.2c4.8-11.9,14.6-21,26.9-24.8c3.5-1,5.4-1.5,8.9-2
	c34.3-5.2,82.6,7.3,145.7,46.8c37.6-8.8,76.1-13.2,114.6-13.1c38.9,0,77.6,4.4,114.5,13.1c63-39.8,111.5-52.3,146-46.8
	c3.6,0.6,6.7,1.3,9.3,2.1c12,4,21.6,13,26.3,24.7c20.8,51.9,22.2,98,12.9,136.1c29.5,39.9,45.1,87.3,45.1,140.5
	c0,160.3-71.4,241.7-198.1,272.7c5.3,17.7,8.1,37.5,8.1,58.9c0,38.6-0.2,77.3-0.5,115.9c23,5,37.6,27.8,32.6,50.8
	c-3.6,16.6-16.7,29.5-33.4,32.8c-48.6,9.7-84.6-22.7-84.6-65.1l0.1-19l0.2-30.1c0.2-30.2,0.3-57.1,0.3-85.2c0-29.7-7.8-49.2-18.1-58
	c-28.2-24.3-13.9-70.6,23-74.8c126.6-14.2,185-63.2,185-198.8c0-40.7-13.3-74.4-39-102.6c-11-12.1-14.2-29.4-8.1-44.6
	c7.1-17.7,10.1-40.8,4.1-68.9l-0.4,0.1c-20.9,5.9-47.4,18.8-79.3,40.5c-10.4,7.1-23.4,9.2-35.5,5.8c-36-10-73.2-15-110.6-14.9
	c-38,0-75.6,5.1-110.6,14.9c-12.1,3.4-25,1.3-35.4-5.7c-32.1-21.6-58.6-34.4-79.7-40.4c-6.1,27.9-3.1,50.9,3.9,68.6
	c6.1,15.2,2.9,32.5-8.1,44.6c-25.5,27.9-39,62.2-39,102.6c0,135.3,58.5,184.7,184.4,198.8c36.9,4.1,51.2,50.2,23.2,74.6
	c-8.2,7.2-18.3,31.2-18.3,58.2v134.4c0,42.1-35.6,73.6-83.6,65.2c-23.2-4.1-38.7-26.2-34.6-49.4c3-17.1,16-30.6,32.9-34.3v-42.2
	C308.4,819.2,276.3,812.8,251,795.9L251,795.9z"/>
</svg>
