<?xml version="1.0" encoding="utf-8"?>
<!-- Generator: Adobe Illustrator 26.0.3, SVG Export Plug-In . SVG Version: 6.00 Build 0)  -->
<svg version="1.1" id="Layer_1" xmlns="http://www.w3.org/2000/svg" xmlns:xlink="http://www.w3.org/1999/xlink" x="0px" y="0px"
	 viewBox="0 0 1536 1468" style="enable-background:new 0 0 1536 1468;" xml:space="preserve">
<style type="text/css">
	.st0{fill:#FFFFFF;}
</style>
<path class="st0" d="M349,477v991H19V477H349z M370,171c0.7,48.7-16.2,89.3-50.5,122S240,342,184,342h-2c-54.7,0-98.7-16.3-132-49
	S0,219.7,0,171c0-49.3,17.2-90.2,51.5-122.5S130.7,0,186,0s99.7,16.2,133,48.5S369.3,121.7,370,171z M1536,900v568h-329V938
	c0-70-13.5-124.8-40.5-164.5S1097.3,714,1040,714c-42,0-77.2,11.5-105.5,34.5S885,800,871,834c-7.3,20-11,47-11,81v553H531
	c1.3-266,2-481.7,2-647s-0.3-264-1-296l-1-48h329v144h-2c13.3-21.3,27-40,41-56s32.8-33.3,56.5-52c23.7-18.7,52.7-33.2,87-43.5
	c34.3-10.3,72.5-15.5,114.5-15.5c114,0,205.7,37.8,275,113.5S1536,754,1536,900z"/>
</svg>
