<?xml version="1.0" encoding="utf-8"?>
<!-- Generator: Adobe Illustrator 26.0.3, SVG Export Plug-In . SVG Version: 6.00 Build 0)  -->
<svg version="1.1" id="Layer_1" xmlns="http://www.w3.org/2000/svg" xmlns:xlink="http://www.w3.org/1999/xlink" x="0px" y="0px"
	 viewBox="0 0 1536 1468" style="enable-background:new 0 0 1536 1468;" xml:space="preserve">
<style type="text/css">
	.st0{fill:#FFFFFF;}
</style>
<g>
	<path class="st0" d="M1168.7,1283.9V933.8h155.6v505.8H157.2V933.8h155.6v350.2H1168.7z"/>
	<path class="st0" d="M1052,1011.6l31.1-116.7L456.7,766.5l-27.2,128.4L1052,1011.6z M515.1,591.4l583.6,272.3l54.5-116.7
		L569.6,474.7C569.6,474.7,515.1,591.4,515.1,591.4z M678.5,303.5l490.2,412.4l81.7-97.3L756.3,206.2l-81.7,97.3L678.5,303.5z
		 M993.7,0l-105,77.8l385.2,517.5l105-77.8L993.7,0z M429.5,1167.2H1052v-116.7H429.5V1167.2z"/>
</g>
</svg>
